<svg width="536" height="430" viewBox="0 0 536 430" fill="none" xmlns="http://www.w3.org/2000/svg">
<g clip-path="url(#clip0)">
<path d="M437.2 78.5711L362.995 133.771H471.869L437.2 78.5711Z" fill="#F2F2F2"/>
<path d="M477.662 139.668H356.213L319.188 167.211H494.961L477.662 139.668Z" fill="#F2F2F2"/>
<path d="M314.78 172.644L197.427 259.941L281.02 393.037L524.182 212.151L499.369 172.644H314.78Z" fill="#F2F2F2"/>
<path d="M326.857 430C462.246 430 572 424.101 572 416.825C572 409.549 462.246 403.65 326.857 403.65C191.468 403.65 81.7142 409.549 81.7142 416.825C81.7142 424.101 191.468 430 326.857 430Z" fill="#F2F2F2"/>
<path d="M70.5164 402.333C109.462 402.333 141.033 397.909 141.033 392.452C141.033 386.994 109.462 382.57 70.5164 382.57C31.5713 382.57 0 386.994 0 392.452C0 397.909 31.5713 402.333 70.5164 402.333Z" fill="#F2F2F2"/>
<path d="M193.805 232.994C198.417 232.994 202.155 230.639 202.155 227.734C202.155 224.829 198.417 222.473 193.805 222.473C189.194 222.473 185.456 224.829 185.456 227.734C185.456 230.639 189.194 232.994 193.805 232.994Z" fill="#3F3D56"/>
<path d="M413.193 266.232H225.554L230.169 248.155L234.159 232.516L240.935 205.974H398.252L404.835 232.516L409.34 250.689L413.193 266.232Z" fill="#3F3D56"/>
<path opacity="0.1" d="M409.34 250.689H230.169V248.155L234.159 232.517H404.835L409.34 250.689Z" fill="black"/>
<path d="M206 226.06H181.611V246.624H206V226.06Z" fill="#6C63FF"/>
<path d="M475.153 236.103H164.034V416.878H475.153V236.103Z" fill="#3F3D56"/>
<path d="M475.153 304.013H164.034V348.968H475.153V304.013Z" fill="#6C63FF"/>
<path d="M319.594 410.422C362.186 410.422 396.714 372.845 396.714 326.491C396.714 280.137 362.186 242.559 319.594 242.559C277.001 242.559 242.473 280.137 242.473 326.491C242.473 372.845 277.001 410.422 319.594 410.422Z" fill="#2F2E41"/>
<path d="M319.594 404.444C359.153 404.444 391.222 369.543 391.222 326.491C391.222 283.438 359.153 248.537 319.594 248.537C280.035 248.537 247.966 283.438 247.966 326.491C247.966 369.543 280.035 404.444 319.594 404.444Z" fill="#3F3D56"/>
<path d="M319.594 385.792C349.688 385.792 374.084 359.242 374.084 326.491C374.084 293.739 349.688 267.189 319.594 267.189C289.5 267.189 265.104 293.739 265.104 326.491C265.104 359.242 289.5 385.792 319.594 385.792Z" fill="#2F2E41"/>
<path opacity="0.2" d="M427.255 254.276C430.167 254.276 432.528 251.707 432.528 248.537C432.528 245.368 430.167 242.798 427.255 242.798C424.343 242.798 421.982 245.368 421.982 248.537C421.982 251.707 424.343 254.276 427.255 254.276Z" fill="#6C63FF"/>
<path opacity="0.5" d="M443.075 254.276C445.987 254.276 448.348 251.707 448.348 248.537C448.348 245.368 445.987 242.798 443.075 242.798C440.163 242.798 437.802 245.368 437.802 248.537C437.802 251.707 440.163 254.276 443.075 254.276Z" fill="#6C63FF"/>
<path d="M458.894 254.276C461.807 254.276 464.168 251.707 464.168 248.537C464.168 245.368 461.807 242.798 458.894 242.798C455.982 242.798 453.621 245.368 453.621 248.537C453.621 251.707 455.982 254.276 458.894 254.276Z" fill="#6C63FF"/>
<path d="M337.83 210.278H300.918V228.451H337.83V210.278Z" fill="#2F2E41"/>
<path d="M31.9588 156.144L35.1901 152.628C35.1901 152.628 43.448 136.998 35.1901 138.17C26.9322 139.342 26.9323 147.157 26.9323 147.157V156.144L31.9588 156.144Z" fill="#9F616A"/>
<path d="M160.136 194.047L163.367 192.874C163.367 192.874 171.984 178.808 173.061 185.059C174.138 191.311 168.752 199.908 168.752 199.908H160.135L160.136 194.047Z" fill="#9F616A"/>
<path d="M207.596 38.3642L67.2672 0L33.0095 148.965L173.338 187.329L207.596 38.3642Z" fill="#3F3D56"/>
<path opacity="0.2" d="M194.722 44.6179L74.1906 11.7266L53.0122 103.649L173.544 136.54L194.722 44.6179Z" fill="#6C63FF"/>
<path d="M83.0379 154.386C91.0159 154.386 97.4833 148.525 97.4833 141.296C97.4833 134.067 91.0159 128.206 83.0379 128.206C75.0599 128.206 68.5925 134.067 68.5925 141.296C68.5925 148.525 75.0599 154.386 83.0379 154.386Z" fill="#2F2E41"/>
<path d="M60.6819 247.188C60.6819 247.188 55.2964 263.208 54.2192 303.846C53.1421 344.483 52.065 369.882 56.7325 373.398C61.4 376.915 68.2217 376.134 68.5808 375.352C68.9398 374.571 70.735 323.774 70.735 323.774L80.07 285.872L90.4821 311.661V356.596C90.4821 356.596 98.3809 364.411 101.612 356.987C104.844 349.563 106.998 311.661 106.998 311.661C106.998 311.661 110.947 247.188 104.126 239.373C97.3038 231.558 60.6819 247.188 60.6819 247.188Z" fill="#2F2E41"/>
<path d="M61.759 373.398C61.759 373.398 57.8096 369.491 54.5782 374.571C51.3469 379.65 40.5758 390.591 43.089 392.545C45.6023 394.499 58.5276 395.28 59.9638 393.326C59.9638 393.326 70.3759 388.247 70.3759 387.075C70.3759 385.902 68.9397 373.008 67.5036 373.398C66.0674 373.789 62.118 376.915 61.759 373.398Z" fill="#2F2E41"/>
<path d="M95.5086 354.252H102.467C102.467 354.252 100.535 359.722 102.33 359.722C104.126 359.722 120.641 374.571 114.179 376.134C107.716 377.697 89.405 370.663 88.6869 368.319C87.9688 365.974 91.2002 355.424 91.2002 355.424L95.5086 357.769V354.252Z" fill="#2F2E41"/>
<path d="M75.4023 151.455C75.4023 151.455 74.6842 164.741 71.0938 165.913C67.5034 167.085 82.583 179.198 82.583 179.198L92.9951 164.35C92.9951 164.35 89.0457 156.926 90.4819 151.455C91.918 145.985 75.4023 151.455 75.4023 151.455Z" fill="#9F616A"/>
<path opacity="0.1" d="M75.4023 151.455C75.4023 151.455 74.6842 164.741 71.0938 165.913C67.5034 167.085 82.583 179.198 82.583 179.198L92.9951 164.35C92.9951 164.35 89.0457 156.926 90.4819 151.455C91.918 145.985 75.4023 151.455 75.4023 151.455Z" fill="black"/>
<path d="M81.8649 166.694C81.8649 166.694 69.2986 161.615 67.5034 162.787C65.7082 163.959 48.8334 172.165 48.4744 173.728C48.1153 175.291 50.6286 197.954 50.6286 197.954C50.6286 197.954 54.9371 199.908 55.2961 208.113C55.6551 216.319 65.3492 229.214 62.1178 237.81C58.8865 246.406 55.6551 249.532 61.7588 250.705C67.8624 251.877 95.5083 249.923 96.9445 247.188C98.3806 244.453 106.639 240.545 109.152 241.327C111.665 242.108 107.716 200.689 107.716 200.689L109.87 194.828L117.051 173.337C117.051 173.337 106.279 160.052 95.8674 161.224C95.8674 161.224 84.3782 162.787 81.8649 166.694Z" fill="#555AA8"/>
<path d="M53.8599 174.9L48.4743 173.728C48.4743 173.728 43.0888 177.635 41.2936 177.635C39.4984 177.635 39.4984 179.198 39.4984 179.198C39.4984 179.198 32.6767 167.867 34.1128 154.972C34.1128 154.972 25.8549 150.674 25.4959 153.8C25.1369 156.926 22.2646 192.484 28.3682 194.828C34.4719 197.173 55.2961 197.563 55.2961 197.563L53.8599 174.9Z" fill="#555AA8"/>
<path d="M112.024 172.556H117.051L130.335 187.013C130.335 187.013 133.566 186.232 134.644 188.576C135.721 190.921 142.901 190.53 142.901 190.53L161.93 192.484C161.93 192.484 164.444 201.471 162.648 203.034C160.853 204.597 129.258 204.987 129.258 204.987C129.258 204.987 126.386 203.424 124.591 204.987C122.795 206.55 109.87 196.782 108.434 194.047C106.998 191.311 112.024 172.556 112.024 172.556Z" fill="#555AA8"/>
<path d="M83.6602 157.707C90.9969 157.707 96.9446 151.234 96.9446 143.25C96.9446 135.265 90.9969 128.792 83.6602 128.792C76.3234 128.792 70.3758 135.265 70.3758 143.25C70.3758 151.234 76.3234 157.707 83.6602 157.707Z" fill="#9F616A"/>
<path d="M75.4237 134.841C75.4237 134.841 73.1516 128.412 76.4462 126.31L77.3551 129.154C77.3551 129.154 85.6485 123.713 87.807 124.95L85.7621 127.917C85.7621 127.917 95.4187 127.917 96.1004 131.997L92.6922 132.121C92.6922 132.121 96.3276 134.717 96.4412 138.921L89.1703 139.416L92.6922 141.641C92.6922 141.641 79.5136 143.619 76.3326 137.932L75.4237 134.841Z" fill="#2F2E41"/>
<path d="M70.5555 137.584C70.5555 137.584 74.4054 141.704 79.3878 139.67C84.3703 137.637 79.3878 130.181 79.3878 130.181L76.0662 128.373L70.5555 137.584Z" fill="#2F2E41"/>
<path d="M138.39 83.599L126.596 90.3293L132.781 103.164L144.574 96.4337L138.39 83.599Z" stroke="#F2F2F2" stroke-width="2" stroke-miterlimit="10"/>
<path d="M108.968 78.8719L97.436 71.6257L90.7778 84.1764L102.31 91.4226L108.968 78.8719Z" fill="#6C63FF"/>
<path d="M337.752 196.146C341.43 196.146 344.411 192.901 344.411 188.9C344.411 184.898 341.43 181.653 337.752 181.653C334.075 181.653 331.094 184.898 331.094 188.9C331.094 192.901 334.075 196.146 337.752 196.146Z" stroke="#3F3D56" stroke-width="2" stroke-miterlimit="10"/>
<path d="M317.173 168.478C320.85 168.478 323.831 165.234 323.831 161.232C323.831 157.23 320.85 153.986 317.173 153.986C313.495 153.986 310.514 157.23 310.514 161.232C310.514 165.234 313.495 168.478 317.173 168.478Z" stroke="#3F3D56" stroke-width="2" stroke-miterlimit="10"/>
<path d="M351.069 147.399C354.746 147.399 357.727 144.154 357.727 140.152C357.727 136.15 354.746 132.906 351.069 132.906C347.392 132.906 344.411 136.15 344.411 140.152C344.411 144.154 347.392 147.399 351.069 147.399Z" stroke="#3F3D56" stroke-width="2" stroke-miterlimit="10"/>
<path d="M125.901 67.6905C129.578 67.6905 132.559 64.4462 132.559 60.4443C132.559 56.4423 129.578 53.1981 125.901 53.1981C122.223 53.1981 119.242 56.4423 119.242 60.4443C119.242 64.4462 122.223 67.6905 125.901 67.6905Z" stroke="#F2F2F2" stroke-width="2" stroke-miterlimit="10"/>
</g>
<defs>
<clipPath id="clip0">
<rect width="572" height="430" fill="white"/>
</clipPath>
</defs>
</svg>
